<svg width="371" height="20" viewBox="0 0 371 20" fill="none" xmlns="http://www.w3.org/2000/svg"><path d="M-0.000131601 10.7298V9.61367C-0.000131601 6.62895 0.760845 4.37984 2.2828 2.86634C3.81321 1.35284 5.85094 0.596092 8.39598 0.596092C10.7127 0.596092 12.5264 1.14991 13.837 2.25756C15.156 3.3652 15.8071 4.78569 15.7901 6.51903L15.7775 6.84879H11.1735V6.64586C11.1735 5.86797 10.9283 5.24228 10.4379 4.76878C9.94753 4.29529 9.20346 4.05854 8.20574 4.05854C7.17419 4.05854 6.35403 4.43903 5.74524 5.2C5.13646 5.95252 4.83207 7.15318 4.83207 8.80196V11.5668C4.83207 13.2325 5.17028 14.4459 5.84671 15.2069C6.53159 15.9678 7.45322 16.3483 8.61159 16.3483C9.1781 16.3483 9.66428 16.2849 10.0701 16.1581C10.4844 16.0312 10.8818 15.8241 11.2623 15.5366V12.7337H8.35793V9.44879L15.8155 9.43611V17.0586C15.1983 17.7096 14.2893 18.3226 13.0887 18.8976C11.8965 19.4641 10.3957 19.7473 8.58623 19.7473C5.92281 19.7473 3.82589 18.9906 2.29548 17.4771C0.765073 15.9636 -0.000131601 13.7145 -0.000131601 10.7298ZM17.3699 19.4049V0.253653H21.9231V19.4049H17.3699ZM23.3 13.1395V12.7337C23.3 10.6875 23.9553 9.07253 25.2658 7.88879C26.5849 6.69659 28.2971 6.10049 30.4024 6.10049C32.5078 6.10049 34.2158 6.69659 35.5263 7.88879C36.8454 9.07253 37.5049 10.6875 37.5049 12.7337V13.1395C37.5049 15.1773 36.8454 16.7922 35.5263 17.9844C34.2158 19.1766 32.5078 19.7727 30.4024 19.7727C28.2971 19.7727 26.5849 19.1766 25.2658 17.9844C23.9553 16.7922 23.3 15.1773 23.3 13.1395ZM27.9166 12.4673V13.3805C27.9166 14.4374 28.1322 15.2195 28.5634 15.7269C29.0031 16.2257 29.6161 16.4751 30.4024 16.4751C31.1888 16.4751 31.7975 16.2257 32.2288 15.7269C32.66 15.2195 32.8756 14.4374 32.8756 13.3805V12.4673C32.8756 11.4273 32.6515 10.6579 32.2034 10.159C31.7637 9.65172 31.1634 9.39806 30.4024 9.39806C29.633 9.39806 29.0242 9.65172 28.5761 10.159C28.1364 10.6579 27.9166 11.4273 27.9166 12.4673ZM38.8564 19.4049V0.253653H43.3842V7.82537C43.8069 7.3096 44.3269 6.9122 44.9442 6.63318C45.5614 6.3457 46.2717 6.20196 47.0749 6.20196C48.7406 6.20196 50.0681 6.80228 51.0574 8.00294C52.0551 9.20359 52.554 10.7678 52.554 12.6956V13.1015C52.554 15.0377 52.0509 16.6147 51.0447 17.8322C50.0385 19.0498 48.7068 19.6586 47.0496 19.6586C46.2378 19.6586 45.4896 19.5106 44.8047 19.2147C44.1198 18.9187 43.6336 18.5256 43.3461 18.0351H43.2954L43.232 19.4049H38.8564ZM43.3842 14.7756C43.5533 15.2069 43.8239 15.5873 44.1959 15.9171C44.5679 16.2469 45.0668 16.4117 45.6925 16.4117C46.4365 16.4117 46.9946 16.1243 47.3666 15.5493C47.7387 14.9743 47.9247 14.2176 47.9247 13.279V12.5688C47.9247 11.6303 47.7387 10.882 47.3666 10.3239C47.003 9.76587 46.4281 9.48684 45.6417 9.48684C45.0583 9.48684 44.5764 9.65172 44.1959 9.98148C43.8154 10.3112 43.5448 10.6875 43.3842 11.1103V14.7756ZM53.3094 15.6254C53.3094 14.1795 53.8674 13.093 54.9835 12.3659C56.0996 11.6303 57.5201 11.2582 59.245 11.2498H61.8577V10.5903C61.8577 10.0829 61.7308 9.68131 61.4772 9.38538C61.2235 9.08099 60.7796 8.92879 60.1455 8.92879C59.5198 8.92879 59.0674 9.05562 58.7884 9.30928C58.5178 9.55448 58.3825 9.87578 58.3825 10.2732V10.5142H54.0323V10.2605C54.0323 9.02603 54.6199 8.0283 55.7952 7.26732C56.9705 6.50635 58.5051 6.12586 60.3991 6.12586C62.31 6.12586 63.7855 6.49366 64.8255 7.22928C65.8655 7.95643 66.3855 9.10212 66.3855 10.6664V16.5386C66.3855 17.0543 66.4362 17.549 66.5377 18.0225C66.6391 18.4875 66.7744 18.8849 66.9435 19.2147V19.4049H62.4664C62.3565 19.2104 62.2635 18.9652 62.1874 18.6693C62.1198 18.3734 62.069 18.0817 62.0352 17.7942C61.79 18.2592 61.2954 18.682 60.5513 19.0625C59.8157 19.443 58.9068 19.6332 57.8245 19.6332C56.5055 19.6332 55.4232 19.3034 54.5776 18.6439C53.7321 17.976 53.3094 16.9698 53.3094 15.6254ZM57.8372 15.2195C57.8372 15.7099 57.9767 16.1073 58.2557 16.4117C58.5432 16.7077 58.9871 16.8556 59.5874 16.8556C60.2554 16.8556 60.8007 16.6443 61.2235 16.2215C61.6463 15.7987 61.8577 15.2787 61.8577 14.6615V13.6849H60.1835C59.3803 13.6849 58.7884 13.8117 58.4079 14.0654C58.0274 14.319 57.8372 14.7038 57.8372 15.2195ZM68.4853 19.4049V0.253653H73.0384V19.4049H68.4853ZM80.9414 19.4049V0.938532H85.6215V8.05367H91.5951V0.938532H96.2751V19.4049H91.5951V11.7064H85.6215V19.4049H80.9414ZM98.3876 14.4332V6.49366H102.928V14.3064C102.928 15.0758 103.08 15.6085 103.385 15.9044C103.698 16.1919 104.108 16.3356 104.615 16.3356C105.08 16.3356 105.499 16.1919 105.871 15.9044C106.243 15.6169 106.517 15.2618 106.695 14.839V6.49366H111.235V19.4049H106.847L106.784 17.9337H106.733C106.395 18.4664 105.887 18.8934 105.211 19.2147C104.543 19.5275 103.765 19.6839 102.877 19.6839C101.575 19.6839 100.501 19.2781 99.6559 18.4664C98.8104 17.6547 98.3876 16.3103 98.3876 14.4332ZM113.221 19.4049V0.253653H117.749V7.82537C118.172 7.3096 118.692 6.9122 119.309 6.63318C119.926 6.3457 120.636 6.20196 121.44 6.20196C123.105 6.20196 124.433 6.80228 125.422 8.00294C126.42 9.20359 126.919 10.7678 126.919 12.6956V13.1015C126.919 15.0377 126.416 16.6147 125.409 17.8322C124.403 19.0498 123.071 19.6586 121.414 19.6586C120.603 19.6586 119.854 19.5106 119.169 19.2147C118.484 18.9187 117.998 18.5256 117.711 18.0351H117.66L117.597 19.4049H113.221ZM117.749 14.7756C117.918 15.2069 118.189 15.5873 118.561 15.9171C118.933 16.2469 119.431 16.4117 120.057 16.4117C120.801 16.4117 121.359 16.1243 121.731 15.5493C122.103 14.9743 122.289 14.2176 122.289 13.279V12.5688C122.289 11.6303 122.103 10.882 121.731 10.3239C121.368 9.76587 120.793 9.48684 120.006 9.48684C119.423 9.48684 118.941 9.65172 118.561 9.98148C118.18 10.3112 117.91 10.6875 117.749 11.1103V14.7756Z" fill="white"/><path d="M134.416 19.4049V5.39025C134.416 3.58927 134.94 2.24065 135.988 1.34439C137.045 0.448124 138.373 -6.46338e-06 139.971 -6.46338e-06C140.36 -6.46338e-06 140.711 0.0169041 141.024 0.0507253C141.336 0.0845465 141.624 0.135278 141.886 0.202921L141.759 3.46244C141.607 3.42862 141.446 3.39902 141.277 3.37366C141.108 3.34829 140.914 3.33561 140.694 3.33561C140.136 3.33561 139.696 3.53008 139.375 3.91903C139.062 4.30797 138.906 4.90407 138.906 5.70732V7.62245L138.931 7.86342V19.4049H134.416ZM132.742 9.7405V6.49366H135.836H136.229H141.15V9.7405H132.742ZM141.069 13.1395V12.7337C141.069 10.6875 141.724 9.07253 143.035 7.88879C144.354 6.69659 146.066 6.10049 148.171 6.10049C150.277 6.10049 151.985 6.69659 153.295 7.88879C154.614 9.07253 155.274 10.6875 155.274 12.7337V13.1395C155.274 15.1773 154.614 16.7922 153.295 17.9844C151.985 19.1766 150.277 19.7727 148.171 19.7727C146.066 19.7727 144.354 19.1766 143.035 17.9844C141.724 16.7922 141.069 15.1773 141.069 13.1395ZM145.685 12.4673V13.3805C145.685 14.4374 145.901 15.2195 146.332 15.7269C146.772 16.2257 147.385 16.4751 148.171 16.4751C148.958 16.4751 149.566 16.2257 149.998 15.7269C150.429 15.2195 150.644 14.4374 150.644 13.3805V12.4673C150.644 11.4273 150.42 10.6579 149.972 10.159C149.533 9.65172 148.932 9.39806 148.171 9.39806C147.402 9.39806 146.793 9.65172 146.345 10.159C145.905 10.6579 145.685 11.4273 145.685 12.4673ZM156.625 19.4049V6.49366H161.064L161.115 7.93952H161.166C161.436 7.44066 161.808 7.02212 162.282 6.68391C162.755 6.3457 163.275 6.17659 163.842 6.17659C164.045 6.17659 164.239 6.19773 164.425 6.24C164.611 6.28228 164.746 6.32033 164.831 6.35415V10.0068C164.679 9.96456 164.51 9.93074 164.324 9.90538C164.146 9.88001 163.947 9.86733 163.728 9.86733C163.203 9.86733 162.709 10.0322 162.244 10.362C161.779 10.6833 161.432 11.106 161.204 11.6303V19.4049H156.625ZM171.073 10.7298V9.61367C171.073 6.56976 171.834 4.30797 173.356 2.82829C174.886 1.34016 176.894 0.596092 179.38 0.596092C181.714 0.596092 183.561 1.18374 184.922 2.35902C186.292 3.52585 186.977 5.11968 186.977 7.14049V7.78732H182.348V6.93757C182.348 5.97366 182.098 5.24651 181.599 4.7561C181.109 4.26569 180.365 4.02049 179.367 4.02049C178.327 4.02049 177.499 4.37984 176.881 5.09854C176.273 5.80878 175.968 7.02212 175.968 8.73855V11.6049C175.968 13.2283 176.268 14.429 176.869 15.2069C177.469 15.9763 178.323 16.361 179.431 16.361C180.395 16.361 181.113 16.0947 181.587 15.562C182.06 15.0208 182.314 14.2599 182.348 13.279V12.5815H186.977V13.3298C186.935 15.2576 186.241 16.8091 184.897 17.9844C183.553 19.1597 181.709 19.7473 179.367 19.7473C176.848 19.7473 174.835 18.9948 173.33 17.4898C171.825 15.9847 171.073 13.7314 171.073 10.7298ZM187.466 13.1268V12.721C187.466 10.7086 188.109 9.10212 189.394 7.90147C190.679 6.70082 192.336 6.10049 194.366 6.10049C196.386 6.10049 197.972 6.67123 199.122 7.81269C200.272 8.95416 200.847 10.5268 200.847 12.5307V13.8878H190.37V11.5922H196.408V11.3512C196.416 10.7509 196.238 10.2478 195.875 9.84196C195.511 9.43611 194.991 9.23318 194.315 9.23318C193.554 9.23318 192.97 9.51221 192.565 10.0703C192.167 10.6283 191.968 11.4146 191.968 12.4293V13.3298C191.968 14.3698 192.188 15.1688 192.628 15.7269C193.068 16.2849 193.702 16.5639 194.53 16.5639C195.139 16.5639 195.663 16.4117 196.103 16.1073C196.551 15.8029 196.906 15.4436 197.169 15.0293L200.618 16.6654C200.196 17.6293 199.464 18.3903 198.424 18.9483C197.393 19.4979 196.12 19.7727 194.607 19.7727C192.391 19.7727 190.645 19.1724 189.368 17.9717C188.1 16.7711 187.466 15.1561 187.466 13.1268ZM202.046 19.4049V0.253653H206.599V19.4049H202.046ZM208.623 19.4049V0.253653H213.176V19.4049H208.623ZM221.079 19.4049V0.938532H228.79C230.904 0.938532 232.532 1.47967 233.673 2.56195C234.815 3.64423 235.385 5.17886 235.385 7.16586C235.385 9.1444 234.819 10.6833 233.686 11.7825C232.561 12.8732 230.917 13.4186 228.752 13.4186H225.759V19.4049H221.079ZM225.759 10.0956H228.042C229.048 10.0956 229.741 9.84196 230.122 9.33464C230.511 8.82733 230.705 8.11708 230.705 7.20391C230.705 6.29919 230.511 5.5974 230.122 5.09854C229.741 4.59968 229.048 4.35025 228.042 4.35025H225.759V10.0956ZM235.748 13.1268V12.721C235.748 10.7086 236.39 9.10212 237.675 7.90147C238.961 6.70082 240.618 6.10049 242.647 6.10049C244.668 6.10049 246.253 6.67123 247.403 7.81269C248.553 8.95416 249.128 10.5268 249.128 12.5307V13.8878H238.652V11.5922H244.689V11.3512C244.697 10.7509 244.52 10.2478 244.156 9.84196C243.793 9.43611 243.273 9.23318 242.596 9.23318C241.835 9.23318 241.252 9.51221 240.846 10.0703C240.449 10.6283 240.25 11.4146 240.25 12.4293V13.3298C240.25 14.3698 240.47 15.1688 240.909 15.7269C241.349 16.2849 241.983 16.5639 242.812 16.5639C243.421 16.5639 243.945 16.4117 244.385 16.1073C244.833 15.8029 245.188 15.4436 245.45 15.0293L248.9 16.6654C248.477 17.6293 247.746 18.3903 246.706 18.9483C245.674 19.4979 244.402 19.7727 242.888 19.7727C240.673 19.7727 238.927 19.1724 237.65 17.9717C236.382 16.7711 235.748 15.1561 235.748 13.1268ZM250.315 19.4049V6.49366H254.754L254.804 7.93952H254.855C255.126 7.44066 255.498 7.02212 255.971 6.68391C256.445 6.3457 256.965 6.17659 257.531 6.17659C257.734 6.17659 257.929 6.19773 258.115 6.24C258.301 6.28228 258.436 6.32033 258.521 6.35415V10.0068C258.368 9.96456 258.199 9.93074 258.013 9.90538C257.836 9.88001 257.637 9.86733 257.417 9.86733C256.893 9.86733 256.398 10.0322 255.933 10.362C255.468 10.6833 255.121 11.106 254.893 11.6303V19.4049H250.315ZM260.214 19.4049V5.39025C260.214 3.58927 260.739 2.24065 261.787 1.34439C262.844 0.448124 264.171 -6.46338e-06 265.77 -6.46338e-06C266.158 -6.46338e-06 266.509 0.0169041 266.822 0.0507253C267.135 0.0845465 267.423 0.135278 267.685 0.202921L267.558 3.46244C267.406 3.42862 267.245 3.39902 267.076 3.37366C266.907 3.34829 266.712 3.33561 266.492 3.33561C265.934 3.33561 265.495 3.53008 265.173 3.91903C264.861 4.30797 264.704 4.90407 264.704 5.70732V7.62245L264.73 7.86342V19.4049H260.214ZM258.54 9.7405V6.49366H261.635H262.028H266.949V9.7405H258.54ZM266.867 13.1395V12.7337C266.867 10.6875 267.523 9.07253 268.833 7.88879C270.152 6.69659 271.864 6.10049 273.97 6.10049C276.075 6.10049 277.783 6.69659 279.094 7.88879C280.413 9.07253 281.072 10.6875 281.072 12.7337V13.1395C281.072 15.1773 280.413 16.7922 279.094 17.9844C277.783 19.1766 276.075 19.7727 273.97 19.7727C271.864 19.7727 270.152 19.1766 268.833 17.9844C267.523 16.7922 266.867 15.1773 266.867 13.1395ZM271.484 12.4673V13.3805C271.484 14.4374 271.7 15.2195 272.131 15.7269C272.57 16.2257 273.183 16.4751 273.97 16.4751C274.756 16.4751 275.365 16.2257 275.796 15.7269C276.227 15.2195 276.443 14.4374 276.443 13.3805V12.4673C276.443 11.4273 276.219 10.6579 275.771 10.159C275.331 9.65172 274.731 9.39806 273.97 9.39806C273.2 9.39806 272.592 9.65172 272.143 10.159C271.704 10.6579 271.484 11.4273 271.484 12.4673ZM282.424 19.4049V6.49366H286.863L286.914 7.93952H286.964C287.235 7.44066 287.607 7.02212 288.08 6.68391C288.554 6.3457 289.074 6.17659 289.64 6.17659C289.843 6.17659 290.038 6.19773 290.224 6.24C290.41 6.28228 290.545 6.32033 290.63 6.35415V10.0068C290.477 9.96456 290.308 9.93074 290.122 9.90538C289.945 9.88001 289.746 9.86733 289.526 9.86733C289.002 9.86733 288.507 10.0322 288.042 10.362C287.577 10.6833 287.231 11.106 287.002 11.6303V19.4049H282.424ZM291.588 19.4049V6.49366H295.964L296.027 8.0283H296.09C296.462 7.44489 296.978 6.99675 297.638 6.68391C298.306 6.37106 299.033 6.21464 299.819 6.21464C300.741 6.21464 301.544 6.40911 302.229 6.79805C302.914 7.187 303.4 7.74928 303.688 8.48489H303.726C304.157 7.75773 304.774 7.19968 305.577 6.81074C306.381 6.41334 307.226 6.21464 308.114 6.21464C309.408 6.21464 310.456 6.62049 311.259 7.4322C312.071 8.23546 312.477 9.57985 312.477 11.4654V19.4049H307.936V11.5288C307.936 10.8693 307.801 10.3831 307.53 10.0703C307.268 9.74895 306.871 9.5883 306.338 9.5883C305.873 9.57985 305.467 9.71091 305.121 9.98148C304.774 10.252 304.503 10.6241 304.309 11.0976V19.4049H299.756V11.5668C299.756 10.8904 299.621 10.3916 299.35 10.0703C299.079 9.74895 298.669 9.5883 298.12 9.5883C297.663 9.5883 297.266 9.71936 296.928 9.98148C296.589 10.2351 296.323 10.6072 296.129 11.0976V19.4049H291.588ZM313.778 15.6254C313.778 14.1795 314.336 13.093 315.452 12.3659C316.568 11.6303 317.988 11.2582 319.713 11.2498H322.326V10.5903C322.326 10.0829 322.199 9.68131 321.945 9.38538C321.692 9.08099 321.248 8.92879 320.614 8.92879C319.988 8.92879 319.536 9.05562 319.257 9.30928C318.986 9.55448 318.851 9.87578 318.851 10.2732V10.5142H314.5V10.2605C314.5 9.02603 315.088 8.0283 316.263 7.26732C317.439 6.50635 318.973 6.12586 320.867 6.12586C322.778 6.12586 324.254 6.49366 325.294 7.22928C326.334 7.95643 326.854 9.10212 326.854 10.6664V16.5386C326.854 17.0543 326.904 17.549 327.006 18.0225C327.107 18.4875 327.243 18.8849 327.412 19.2147V19.4049H322.935C322.825 19.2104 322.732 18.9652 322.656 18.6693C322.588 18.3734 322.537 18.0817 322.503 17.7942C322.258 18.2592 321.764 18.682 321.02 19.0625C320.284 19.443 319.375 19.6332 318.293 19.6332C316.974 19.6332 315.891 19.3034 315.046 18.6439C314.2 17.976 313.778 16.9698 313.778 15.6254ZM318.305 15.2195C318.305 15.7099 318.445 16.1073 318.724 16.4117C319.011 16.7077 319.455 16.8556 320.056 16.8556C320.724 16.8556 321.269 16.6443 321.692 16.2215C322.114 15.7987 322.326 15.2787 322.326 14.6615V13.6849H320.652C319.848 13.6849 319.257 13.8117 318.876 14.0654C318.496 14.319 318.305 14.7038 318.305 15.2195ZM328.941 19.4049V6.49366H333.342L333.393 7.96489H333.456C333.743 7.45757 334.221 7.03903 334.889 6.70927C335.566 6.37106 336.339 6.20196 337.21 6.20196C338.546 6.20196 339.641 6.57822 340.495 7.33074C341.357 8.08326 341.789 9.39806 341.789 11.2751V19.4049H337.261V11.4527C337.261 10.7594 337.113 10.2774 336.817 10.0068C336.529 9.72782 336.119 9.5883 335.587 9.5883C335.147 9.5883 334.733 9.71936 334.344 9.98148C333.963 10.2351 333.676 10.6029 333.481 11.0849V19.4049H328.941ZM343.026 13.1395V12.721C343.026 10.6579 343.66 9.03871 344.928 7.86342C346.205 6.68814 347.892 6.10049 349.989 6.10049C352.018 6.10049 353.574 6.56976 354.656 7.5083C355.739 8.43838 356.326 9.63481 356.419 11.0976L356.432 11.3893H352.031V11.199C352.031 10.641 351.858 10.1929 351.511 9.85465C351.173 9.50798 350.674 9.33464 350.014 9.33464C349.245 9.33464 348.657 9.60944 348.251 10.159C347.846 10.7002 347.643 11.4696 347.643 12.4673V13.3805C347.643 14.3867 347.837 15.1688 348.226 15.7269C348.615 16.2764 349.207 16.5512 350.002 16.5512C350.746 16.5512 351.27 16.3695 351.574 16.0059C351.879 15.6338 352.031 15.1942 352.031 14.6868V14.522H356.432L356.419 14.7503C356.411 16.1877 355.848 17.3841 354.732 18.3395C353.616 19.295 352.039 19.7727 350.002 19.7727C347.913 19.7727 346.226 19.1851 344.941 18.0098C343.664 16.826 343.026 15.2026 343.026 13.1395ZM356.883 13.1268V12.721C356.883 10.7086 357.525 9.10212 358.811 7.90147C360.096 6.70082 361.753 6.10049 363.782 6.10049C365.803 6.10049 367.389 6.67123 368.539 7.81269C369.688 8.95416 370.263 10.5268 370.263 12.5307V13.8878H359.787V11.5922H365.824V11.3512C365.833 10.7509 365.655 10.2478 365.292 9.84196C364.928 9.43611 364.408 9.23318 363.732 9.23318C362.971 9.23318 362.387 9.51221 361.981 10.0703C361.584 10.6283 361.385 11.4146 361.385 12.4293V13.3298C361.385 14.3698 361.605 15.1688 362.045 15.7269C362.485 16.2849 363.119 16.5639 363.947 16.5639C364.556 16.5639 365.08 16.4117 365.52 16.1073C365.968 15.8029 366.323 15.4436 366.585 15.0293L370.035 16.6654C369.612 17.6293 368.881 18.3903 367.841 18.9483C366.809 19.4979 365.537 19.7727 364.023 19.7727C361.808 19.7727 360.062 19.1724 358.785 17.9717C357.517 16.7711 356.883 15.1561 356.883 13.1268Z" fill="#FF5BD6"/></svg>